PathFileType	4	(X/Y/Z)	C:/Users/beibeiliu/ov580/test_trc\sequence.18_training_dense_left.trc
DataRate	CameraRate	NumFrames	NumMarkers	Units	OrigDataRate	OrigDataStartFrame	OrigNumFrames
120	120	16	19	mm	120	28	82
Frame#	Time	ThumbCMC			ThumbMCP			ThumbIP			ThumbTip			IndexMCP			IndexPIP			IndexTip			MiddleMCP			MiddlePIP			MiddleTip			RingMCP			RingPIP			RingTip			PinkyMCP			PinkyPIP			PinkyTip			BackHand1			BackHand2			BackHand3	
		X0	Y0	Z0	X1	Y1	Z1	X2	Y2	Z2	X3	Y3	Z3	X4	Y4	Z4	X5	Y5	Z5	X6	Y6	Z6	X7	Y7	Z7	X8	Y8	Z8	X9	Y9	Z9	X10	Y10	Z10	X11	Y11	Z11	X12	Y12	Z12	X13	Y13	Z13	X14	Y14	Z14	X15	Y15	Z15	X16	Y16	Z16	X17	Y17	Z17	X18	Y18	Z18	
27	0.225	-206.385	75.1908	28.9663	-203.181	86.6711	-2.12398	-210.408	82.5956	-29.0459	-209.277	74.195	-50.5435	-248.966	56.6885	-14.0325	-245.047	63.6388	-44.4977	-220.512	68.7023	-53.4976	-247.078	41.5453	-24.4066	-236.881	44.7208	-51.4498	-208.068	62.0436	-55.6299	-235.286	22.7358	-19.6747	-227.182	33.5242	-47.1193	-208.058	46.1455	-52.0823	-220.668	9.23771	-11.6783	-224.381	16.7943	-31.888	-213.386	31.2281	-49.4549	-219.016	27.1125	26.9012	-203.868	27.1784	49.2089	-225.129	48.2666	37.6455	
28	0.233333	-202.411	85.6773	28.013	-195.228	89.6384	0.769915	-199.664	91.0928	-24.6596	-201.911	85.1275	-45.5787	-248.172	84.4197	-16.9663	-240.993	86.9729	-42.5564	-210.462	86.4849	-53.3817	-249.586	67.9392	-21.6457	-238.842	72.085	-52.6261	-211.582	71.2802	-57.3719	-245.986	48.7464	-24.6662	-235.474	57.7706	-48.6771	-212.489	63.2153	-53.1181	-237.669	31.7552	-14.4826	-235.855	37.1491	-39.2244	-221.039	48.394	-53.6823	-234.243	37.9685	22.2155	-217.324	36.7876	48.6855	-228.775	62.6621	40.0826	
29	0.241667	-190.443	86.3055	29.5162	-185.143	90.5986	-1.7288	-182.985	96.6597	-25.6216	-188.153	89.2699	-48.9198	-234.207	102.218	-17.0438	-224.298	106.263	-44.3661	-195.58	98.172	-52.8195	-243.708	85.7498	-27.1263	-230.061	88.1715	-53.8905	-198.213	80.5492	-58.1528	-243.352	69.4407	-26.289	-231.006	72.8692	-50.1241	-207.115	68.4474	-56.7318	-240.744	51.7665	-18.0187	-237.446	56.6812	-42.855	-218.593	62.714	-55.0031	-233.701	57.3195	23.5394	-222.989	49.2164	43.2948	-223.904	77.0382	38.503	
30	0.25	-182.371	86.1595	24.3162	-167.886	90.9687	-5.56071	-169.557	88.5442	-26.0307	-176.106	83.6923	-50.4799	-210.676	117.65	-25.3182	-203.323	111.809	-48.2529	-177.745	91.8483	-55.5993	-226.225	98.6588	-29.7048	-212.79	95.8169	-58.8719	-188.505	78.8255	-61.0957	-233.067	84.637	-32.3646	-218.035	80.2817	-56.1682	-192.678	74.0818	-56.7491	-236.088	65.5225	-24.9963	-230.09	67.5926	-45.4001	-206.369	67.5155	-60.5464	-233.567	69.3714	16.36	-222.717	58.5729	40.2774	-215.434	86.4952	32.9665	
31	0.258333	-166.57	84.1419	23.9795	-149.264	82.0105	-6.41834	-152.13	80.4378	-27.2066	-155.1	75.2601	-53.0222	-187.441	116.769	-31.8093	-175.02	110.653	-53.4484	-157.743	85.6746	-56.1208	-202.736	106.902	-39.4008	-188.987	96.1651	-62.6875	-168.203	72.812	-60.538	-216.566	89.3921	-35.7674	-202.9	85.6595	-57.2807	-180.077	68.2262	-58.3136	-225.483	72.8005	-26.9826	-216.264	72.5744	-51.9969	-197.489	67.1426	-60.4974	-220.356	81.7581	13.0315	-212.922	70.6249	37.641	-195.969	96.282	27.3496	
32	0.266667	-153.101	78.7168	20.5188	-138.189	68.6545	-5.23902	-135.872	63.8277	-29.2713	-145.548	57.8734	-50.8107	-162.28	109.524	-33.1522	-154.851	94.9439	-58.7091	-146.33	67.1729	-55.1624	-183.19	100.64	-42.4539	-172.12	85.9969	-67.1906	-157.995	58.8318	-57.2219	-196.721	91.5123	-40.3479	-187.253	78.6102	-61.6239	-170.96	56.7548	-56.9489	-212.6	76.3852	-32.8898	-199.263	72.7675	-53.2292	-180.77	55.9514	-57.9121	-206.448	88.9487	7.04207	-202.07	79.426	34.0567	-183.899	94.543	22.0448	
33	0.275	-138.281	69.7655	21.6267	-127.568	51.2431	-4.13224	-128.687	42.1322	-29.4179	-137.15	34.2589	-45.0609	-145.503	89.4194	-40.332	-140.025	70.0441	-61.0511	-137.002	43.1652	-48.1584	-161.102	85.1541	-49.9484	-155.895	63.2745	-67.0904	-150.721	37.8878	-50.4978	-178.23	79.0309	-47.0824	-171.847	59.6026	-60.8536	-162.436	36.061	-46.2396	-197.637	71.0136	-39.7701	-185.084	57.3907	-52.88	-173.865	36.6372	-51.2025	-186.492	90.5066	1.72854	-188.769	87.0166	25.987	-166.184	95.2248	15.796	
34	0.283333	-132.516	62.5092	24.616	-121.243	36.0812	6.32439	-123.267	24.254	-14.0675	-132.794	13.7046	-33.6612	-129.532	69.8097	-38.8461	-127.484	41.8255	-53.8038	-129.763	22.3465	-38.7883	-146.731	64.3076	-50.6413	-144.627	35.5343	-58.6416	-143.832	18.2612	-31.1642	-168.047	60.7078	-46.0755	-156.866	34.7214	-53.13	-154.804	17.9227	-30.1674	-186.763	56.9298	-34.1903	-173.97	35.0239	-46.046	-161.707	19.7478	-31.1148	-174.489	83.7675	-2.01896	-179.879	85.5803	26.0076	-155.312	88.5385	11.9133	
35	0.291667	-129.094	60.9795	30.6196	-118.294	32.3033	13.5085	-118.576	16.9893	-0.701657	-125.335	0.149037	-16.4941	-122.24	55.1984	-36.0402	-114.166	25.1504	-41.2718	-117.985	9.68902	-22.0811	-143.627	44.1058	-45.7555	-133.36	16.5843	-44.6324	-132.342	5.78531	-15.4314	-161.236	39.145	-40.2142	-148.23	12.7356	-37.797	-144.111	5.87728	-13.8714	-177.436	33.7218	-32.7788	-163.361	12.8708	-29.8424	-155.035	6.07204	-10.6354	-174.207	73.0267	-6.38232	-180.289	81.2517	20.5474	-153.457	81.7736	12.0481	
36	0.3	-131.639	64.7339	33.046	-115.722	35.6831	24.777	-109.437	17.4907	15.8913	-105.157	-6.59263	4.90475	-122.595	41.8523	-28.3963	-108.955	18.7879	-29.3362	-106.655	5.14624	-3.37643	-136.365	29.6171	-33.7341	-119.166	5.79491	-30.0959	-120.738	-1.78387	1.85135	-152.856	19.5361	-26.4827	-135.525	-0.249939	-20.4559	-127.695	0.148186	10.2624	-164.326	10.9902	-17.2238	-147.712	-1.78838	-9.33338	-138.461	-0.554647	14.4719	-178.651	54.0065	-1.24769	-185.049	67.7854	18.4514	-159.926	73.3716	10.1562	
37	0.308333	-139.149	65.9097	32.7313	-113.179	43.6199	34.0386	-101.64	27.3987	32.5265	-90.7719	3.51628	28.4593	-114.472	32.6962	-19.3438	-94.8867	17.4357	-10.369	-89.6813	15.66	17.3426	-128.367	17.6439	-19.3597	-104.414	0.71164	-10.3921	-102.983	0.469844	20.6228	-139.652	4.01821	-10.6618	-113.663	-4.75722	2.72755	-111.568	-0.737131	31.5154	-154.387	-3.43421	0.890855	-131.962	-11.9443	11.6195	-118.834	-1.28782	27.6111	-174.695	39.3719	5.22084	-191.461	48.3549	20.7847	-163.33	64.1488	7.86567	
38	0.316667	-146.159	66.5749	34.5088	-113.655	57.0523	46.1642	-95.7599	41.0187	46.7791	-88.3019	19.8451	49.0399	-109.446	35.8205	-6.67027	-82.8543	28.0319	6.33169	-82.0366	26.7355	34.4808	-112.954	18.7145	-5.43227	-88.3574	6.53977	9.80769	-87.6006	11.5108	42.6666	-121.032	3.09953	4.78354	-98.9812	-1.16025	20.2397	-95.5698	7.77762	45.1087	-134.394	-7.48908	18.0591	-115.523	-10.8371	30.8276	-104.739	4.85068	51.1248	-168.607	23.7761	12.7274	-185.752	38.8616	22.5716	-165.228	55.1745	9.27757	
39	0.325	-151.709	69.4853	34.7079	-122.57	68.4155	47.3798	-97.1665	55.7771	51.395	-84.3407	32.6596	56.6516	-98.9239	41.9715	3.05057	-78.89	41.0852	15.8964	-78.8967	46.9848	47.202	-100.731	21.2598	7.31318	-78.0262	21.536	26.1764	-77.1809	26.407	53	-109.685	11.3569	16.2552	-88.3469	12.1275	35.0434	-86.7619	22.6117	60.7121	-119.674	-2.86421	29.7296	-102.348	1.67577	43.4854	-97.8035	18.8086	61.2163	-160.332	23.0582	14.1415	-181.858	29.5734	25.0401	-164.718	52.527	12.1899	
40	0.333333	-154.311	79.5787	33.8763	-124.681	82.018	44.7149	-100.746	75.2005	49.1754	-83.8218	56.0629	56.6056	-96.2993	56.6719	6.38851	-77.3498	62.7978	23.0838	-79.2199	66.0413	50.2502	-94.473	38.8045	13.0305	-73.2266	43.9164	30.93	-74.2826	55.9845	59.4663	-100.112	23.4841	23.0429	-80.9247	32.5458	40.1653	-84.3968	47.7029	65.1412	-110.953	12.2516	32.1569	-93.4816	18.222	48.4343	-90.4616	38.014	63.3195	-149.326	21.6759	16.6536	-176.042	28.6024	25.0472	-162.97	50.152	11.6078	
41	0.341667	-161.34	82.4768	29.5362	-135.343	93.4733	40.1824	-104.7	92.6246	43.0149	-88.0579	75.176	48.6737	-101.57	75.2748	2.92091	-80.9197	84.362	16.7617	-82.4863	89.0303	45.0237	-90.5265	57.4538	11.9161	-72.3694	70.0242	30.0574	-77.3522	76.9765	60.1952	-93.3287	40.2987	22.6043	-78.7144	57.9457	38.6488	-86.9513	71.6833	60.686	-98.0617	26.1453	34.7337	-85.4931	41.8927	48.3217	-90.8154	60.5688	66.3235	-142.154	29.2109	17.1151	-167.894	30.4595	25.095	-162.154	53.371	11.3647	
42	0.35	-162.372	78.0506	23.5931	-142.382	102.587	26.7137	-114.299	100.486	28.1494	-95.9391	92.8467	35.5952	-108.571	86.6257	-8.5646	-89.2687	103.666	7.48699	-94.6861	112.155	35.4347	-91.0171	73.9633	3.93743	-76.4527	90.9232	20.8872	-88.5643	104.606	48.5769	-89.4205	57.3803	16.9455	-77.866	78.0402	34.4496	-93.2043	91.386	51.4228	-89.4026	43.6647	30.6286	-80.8768	64.7643	40.3308	-92.0709	82.5302	53.0936	-135.278	32.0016	17.2146	-157.649	26.3159	28.1689	-158.053	48.2563	10.247	
